<svg width="334" height="264" xmlns="http://www.w3.org/2000/svg" xmlns:xlink="http://www.w3.org/1999/xlink" overflow="hidden"><defs><clipPath id="clip0"><rect x="185" y="251" width="334" height="264"/></clipPath></defs><g clip-path="url(#clip0)" transform="translate(-185 -251)"><path d="M33.8462 163.003 50.7692 163.003C58.6486 163.003 62.9538 168.33 62.9538 174.687 62.9538 181.043 58.608 186.255 50.7692 186.255L41.5631 186.255 41.5631 199.239 33.8462 199.239ZM49.7674 169.63 41.5631 169.63 41.5631 179.628 49.7674 179.628C52.8068 179.628 55.088 177.672 55.088 174.633 55.088 171.593 52.8 169.63 49.7674 169.63Z" transform="matrix(1.00083 0 0 1 185.024 251)"/><path d="M69.1477 163.003 76.8646 163.003 76.8646 192.449 92.1834 192.449 92.1834 199.218 69.168 199.218Z" transform="matrix(1.00083 0 0 1 185.024 251)"/><path d="M97.7206 163.003 105.546 163.003 105.546 184.516C105.546 189.572 108.314 193.052 113.967 193.052 119.511 193.052 122.279 189.572 122.279 184.516L122.279 163.003 130.105 163.003 130.105 184.739C130.105 193.756 124.94 199.895 113.967 199.895 102.886 199.895 97.7206 193.702 97.7206 184.793Z" transform="matrix(1.00083 0 0 1 185.024 251)"/><path d="M152.795 186.255 147.143 186.255 147.143 199.239 139.446 199.239 139.446 163.003 156.369 163.003C163.917 163.003 168.554 167.951 168.554 174.687 168.554 181.097 164.533 184.516 160.62 185.443L168.743 199.239 159.91 199.239ZM155.239 169.63 147.116 169.63 147.116 179.628 155.239 179.628C158.339 179.628 160.654 177.672 160.654 174.633 160.654 171.593 158.339 169.63 155.239 169.63Z" transform="matrix(1.00083 0 0 1 185.024 251)"/><path d="M176.386 163.003 184.123 163.003 184.123 199.239 176.406 199.239Z" transform="matrix(1.00083 0 0 1 185.024 251)"/><path d="M193.444 163.003 212.513 163.003C219.418 163.003 222.945 167.403 222.945 172.243 222.945 176.806 220.122 179.845 216.697 180.556 220.555 181.151 223.655 184.902 223.655 189.464 223.655 194.879 220.014 199.239 213.116 199.239L193.444 199.239ZM210.834 177.564C213.441 177.564 215.072 175.878 215.072 173.543 215.072 171.316 213.441 169.576 210.834 169.576L201.161 169.576 201.161 177.564ZM211.105 192.666C214.036 192.666 215.776 190.987 215.776 188.374 215.776 186.093 214.145 184.137 211.105 184.137L201.161 184.137 201.161 192.666Z" transform="matrix(1.00083 0 0 1 185.024 251)"/><path d="M231.278 163.003 239.103 163.003 239.103 184.516C239.103 189.572 241.871 193.052 247.524 193.052 253.068 193.052 255.836 189.572 255.836 184.516L255.836 163.003 263.662 163.003 263.662 184.739C263.662 193.756 258.497 199.895 247.524 199.895 236.442 199.895 231.278 193.702 231.278 184.793Z" transform="matrix(1.00083 0 0 1 185.024 251)"/><path d="M274.188 188.266C277.192 191.404 281.352 193.173 285.695 193.16 289.933 193.16 291.998 191.129 291.998 189.098 291.998 186.391 288.85 185.457 284.666 184.475 278.743 183.121 271.128 181.49 271.128 173.394 271.128 167.362 276.34 162.475 284.87 162.475 290.63 162.475 295.409 164.215 298.997 167.525L294.705 173.177C291.858 170.629 288.17 169.224 284.348 169.231 280.869 169.231 279.021 170.754 279.021 172.927 279.021 175.37 282.067 176.129 286.25 177.11 292.228 178.464 299.83 180.258 299.83 188.3 299.83 194.927 295.091 199.929 285.323 199.929 278.371 199.929 273.375 197.594 269.95 194.169Z" transform="matrix(1.00083 0 0 1 185.024 251)"/><path d="M95.4935 211.687 101.958 211.687C107.61 211.687 111.354 215.546 111.354 220.758 111.354 225.97 107.61 229.802 101.958 229.802L95.4935 229.802ZM101.958 227.446C106.142 227.446 108.558 224.454 108.558 220.792 108.558 217.13 106.223 214.111 101.958 214.111L98.2148 214.111 98.2148 227.446Z" transform="matrix(1.00083 0 0 1 185.024 251)"/><path d="M122.733 211.687 125.441 211.687 125.441 229.802 122.733 229.802Z" transform="matrix(1.00083 0 0 1 185.024 251)"/><path d="M146.175 211.39C149.012 211.314 151.7 212.657 153.343 214.97L151.143 216.25C149.96 214.703 148.122 213.799 146.175 213.806 142.398 213.806 139.575 216.683 139.575 220.758 139.575 224.833 142.398 227.737 146.175 227.737 147.87 227.711 149.5 227.074 150.764 225.943L150.764 222.708 144.95 222.708 144.95 220.318 153.479 220.318 153.479 226.972C151.617 229.037 148.954 230.197 146.175 230.154 141.141 230.31 136.935 226.356 136.779 221.322 136.773 221.134 136.773 220.946 136.779 220.758 136.779 215.106 140.983 211.39 146.175 211.39Z" transform="matrix(1.00083 0 0 1 185.024 251)"/><path d="M165.284 211.687 167.992 211.687 167.992 229.802 165.284 229.802Z" transform="matrix(1.00083 0 0 1 185.024 251)"/><path d="M184.157 214.077 178.538 214.077 178.538 211.687 192.47 211.687 192.47 214.077 186.878 214.077 186.878 229.802 184.17 229.802Z" transform="matrix(1.00083 0 0 1 185.024 251)"/><path d="M212.554 226.052 203.646 226.052 202.177 229.802 199.191 229.802 206.387 211.687 209.772 211.687 216.974 229.802 213.982 229.802ZM204.431 223.635 211.735 223.635 208.073 214.05Z" transform="matrix(1.00083 0 0 1 185.024 251)"/><path d="M227.236 211.687 229.944 211.687 229.944 227.446 238.175 227.446 238.175 229.836 227.236 229.836Z" transform="matrix(1.00083 0 0 1 185.024 251)"/><path d="M166.841 67.6923 166.841 101.538 166.841 101.538 196.152 84.6154 166.841 67.6923Z" fill="#00B6CD" transform="matrix(1.00083 0 0 1 185.024 251)"/><path d="M196.152 50.7692 166.841 67.6923 196.152 84.6154 196.152 50.7692Z" fill="#FAAF40" transform="matrix(1.00083 0 0 1 185.024 251)"/><path d="M137.524 50.7692 166.841 67.6923 166.841 33.8462 137.524 50.7692Z" fill="#BE1E2D" transform="matrix(1.00083 0 0 1 185.024 251)"/><path d="M166.841 33.8462 166.841 67.6923 196.152 50.7692 166.841 33.8462Z" fill="#EE4036" transform="matrix(1.00083 0 0 1 185.024 251)"/><path d="M137.524 118.462 166.841 135.385 166.841 101.538 166.841 101.538 166.841 101.538 137.524 118.462Z" fill="#00ADEE" transform="matrix(1.00083 0 0 1 185.024 251)"/><path d="M166.841 101.538 137.524 84.6154 137.524 118.462 166.841 101.538 166.841 101.538Z" fill="#0071BB" transform="matrix(1.00083 0 0 1 185.024 251)"/></g></svg>